<svg width="84" height="84" viewBox="0 0 84 84" fill="none" xmlns="http://www.w3.org/2000/svg">
<g clip-path="url(#clip0_1139_284)">
<path d="M42 84C65.196 84 84 65.196 84 42C84 18.804 65.196 0 42 0C18.804 0 0 18.804 0 42C0 65.196 18.804 84 42 84Z" fill="#13B5EC"/>
<path fill-rule="evenodd" clip-rule="evenodd" d="M45.15 33.8625L54.6 28.35V39.375L45.15 33.8625ZM54.6 57.4875L42 64.8375L29.4 57.4875V44.625L42 51.975L54.6 44.625V57.4875ZM29.4 28.35L38.85 33.8625L29.4 39.375V28.35ZM43.575 36.4875L53.025 42L43.575 47.5125V36.4875ZM40.425 47.5125L30.975 42L40.425 36.4875V47.5125ZM53.025 25.725L42 32.025L30.975 25.725L42 19.1625L53.025 25.725ZM26.25 24.675V59.0625L42 67.9875L57.75 59.0625V24.675L42 15.75L26.25 24.675Z" fill="white"/>
</g>
<defs>
<clipPath id="clip0_1139_284">
<rect width="84" height="84" fill="white"/>
</clipPath>
</defs>
</svg>
