<svg width="128" height="121" viewBox="0 0 128 121" fill="none" xmlns="http://www.w3.org/2000/svg">
<g id="metamask">
<path id="Vector" d="M121.625 1L71.6799 38.0949L80.916 16.2094L121.625 1Z" fill="#E2761B" stroke="#E2761B" stroke-linecap="round" stroke-linejoin="round"/>
<g id="Group">
<path id="Vector_2" d="M6.32471 1L55.8682 38.4463L47.0839 16.2094L6.32471 1Z" fill="#E4761B" stroke="#E4761B" stroke-linecap="round" stroke-linejoin="round"/>
<path id="Vector_3" d="M103.655 86.9859L90.353 107.366L118.814 115.196L126.996 87.4377L103.655 86.9859Z" fill="#E4761B" stroke="#E4761B" stroke-linecap="round" stroke-linejoin="round"/>
<path id="Vector_4" d="M1.05408 87.4377L9.18584 115.196L37.647 107.366L24.3451 86.9859L1.05408 87.4377Z" fill="#E4761B" stroke="#E4761B" stroke-linecap="round" stroke-linejoin="round"/>
<path id="Vector_5" d="M36.0407 52.5514L28.1097 64.5483L56.3701 65.8032L55.3662 35.4346L36.0407 52.5514Z" fill="#E4761B" stroke="#E4761B" stroke-linecap="round" stroke-linejoin="round"/>
<path id="Vector_6" d="M91.9089 52.5514L72.3325 35.0831L71.6799 65.8031L99.8901 64.5482L91.9089 52.5514Z" fill="#E4761B" stroke="#E4761B" stroke-linecap="round" stroke-linejoin="round"/>
<path id="Vector_7" d="M37.647 107.365L54.6132 99.0831L39.956 87.6384L37.647 107.365Z" fill="#E4761B" stroke="#E4761B" stroke-linecap="round" stroke-linejoin="round"/>
<path id="Vector_8" d="M73.3364 99.0831L90.3529 107.365L87.9937 87.6384L73.3364 99.0831Z" fill="#E4761B" stroke="#E4761B" stroke-linecap="round" stroke-linejoin="round"/>
</g>
<g id="Group_2">
<path id="Vector_9" d="M90.3529 107.365L73.3364 99.0831L74.6917 110.176L74.5411 114.845L90.3529 107.365Z" fill="#D7C1B3" stroke="#D7C1B3" stroke-linecap="round" stroke-linejoin="round"/>
<path id="Vector_10" d="M37.6471 107.365L53.4589 114.845L53.3585 110.176L54.6134 99.0831L37.6471 107.365Z" fill="#D7C1B3" stroke="#D7C1B3" stroke-linecap="round" stroke-linejoin="round"/>
</g>
<path id="Vector_11" d="M53.7097 80.3098L39.5544 76.1435L49.5435 71.5757L53.7097 80.3098Z" fill="#233447" stroke="#233447" stroke-linecap="round" stroke-linejoin="round"/>
<path id="Vector_12" d="M74.24 80.3098L78.4063 71.5757L88.4455 76.1435L74.24 80.3098Z" fill="#233447" stroke="#233447" stroke-linecap="round" stroke-linejoin="round"/>
<g id="Group_3">
<path id="Vector_13" d="M37.6471 107.365L40.0565 86.9858L24.3451 87.4376L37.6471 107.365Z" fill="#CD6116" stroke="#CD6116" stroke-linecap="round" stroke-linejoin="round"/>
<path id="Vector_14" d="M87.9436 86.9858L90.353 107.365L103.655 87.4376L87.9436 86.9858Z" fill="#CD6116" stroke="#CD6116" stroke-linecap="round" stroke-linejoin="round"/>
<path id="Vector_15" d="M99.8901 64.5482L71.6799 65.8031L74.2901 80.3098L78.4564 71.5757L88.4956 76.1435L99.8901 64.5482Z" fill="#CD6116" stroke="#CD6116" stroke-linecap="round" stroke-linejoin="round"/>
<path id="Vector_16" d="M39.5546 76.1435L49.5938 71.5757L53.7099 80.3098L56.3703 65.8031L28.1099 64.5482L39.5546 76.1435Z" fill="#CD6116" stroke="#CD6116" stroke-linecap="round" stroke-linejoin="round"/>
</g>
<g id="Group_4">
<path id="Vector_17" d="M28.1099 64.5482L39.9561 87.6384L39.5546 76.1435L28.1099 64.5482Z" fill="#E4751F" stroke="#E4751F" stroke-linecap="round" stroke-linejoin="round"/>
<path id="Vector_18" d="M88.4959 76.1435L87.9939 87.6384L99.8904 64.5482L88.4959 76.1435Z" fill="#E4751F" stroke="#E4751F" stroke-linecap="round" stroke-linejoin="round"/>
<path id="Vector_19" d="M56.3702 65.8031L53.7098 80.3098L57.0228 97.4266L57.7757 74.8886L56.3702 65.8031Z" fill="#E4751F" stroke="#E4751F" stroke-linecap="round" stroke-linejoin="round"/>
<path id="Vector_20" d="M71.68 65.8031L70.3247 74.8384L70.9271 97.4266L74.2902 80.3098L71.68 65.8031Z" fill="#E4751F" stroke="#E4751F" stroke-linecap="round" stroke-linejoin="round"/>
</g>
<path id="Vector_21" d="M74.2901 80.3098L70.927 97.4267L73.3364 99.0832L87.9937 87.6385L88.4956 76.1436L74.2901 80.3098Z" fill="#F6851B" stroke="#F6851B" stroke-linecap="round" stroke-linejoin="round"/>
<path id="Vector_22" d="M39.5544 76.1436L39.956 87.6385L54.6133 99.0832L57.0227 97.4267L53.7097 80.3098L39.5544 76.1436Z" fill="#F6851B" stroke="#F6851B" stroke-linecap="round" stroke-linejoin="round"/>
<path id="Vector_23" d="M74.5412 114.845L74.6918 110.176L73.4369 109.072H54.513L53.3585 110.176L53.4589 114.845L37.6471 107.365L43.1687 111.883L54.3624 119.664H73.5875L84.8314 111.883L90.353 107.365L74.5412 114.845Z" fill="#C0AD9E" stroke="#C0AD9E" stroke-linecap="round" stroke-linejoin="round"/>
<path id="Vector_24" d="M73.3364 99.0832L70.927 97.4267H57.0227L54.6133 99.0832L53.3584 110.176L54.5129 109.072H73.4368L74.6917 110.176L73.3364 99.0832Z" fill="#161616" stroke="#161616" stroke-linecap="round" stroke-linejoin="round"/>
<g id="Group_5">
<path id="Vector_25" d="M123.733 40.5043L128 20.0243L121.625 1L73.3364 36.84L91.909 52.5514L118.162 60.2314L123.984 53.4549L121.474 51.6478L125.49 47.9835L122.378 45.5741L126.394 42.5122L123.733 40.5043Z" fill="#763D16" stroke="#763D16" stroke-linecap="round" stroke-linejoin="round"/>
<path id="Vector_26" d="M0 20.0243L4.26667 40.5043L1.55608 42.5122L5.57177 45.5741L2.5098 47.9835L6.52549 51.6478L4.01569 53.4549L9.78824 60.2314L36.0408 52.5514L54.6133 36.84L6.32471 1L0 20.0243Z" fill="#763D16" stroke="#763D16" stroke-linecap="round" stroke-linejoin="round"/>
</g>
<path id="Vector_27" d="M118.162 60.2314L91.9089 52.5514L99.8901 64.5483L87.9937 87.6385L103.655 87.4377H126.996L118.162 60.2314Z" fill="#F6851B" stroke="#F6851B" stroke-linecap="round" stroke-linejoin="round"/>
<path id="Vector_28" d="M36.0407 52.5514L9.78819 60.2314L1.05408 87.4377H24.3451L39.956 87.6385L28.1098 64.5483L36.0407 52.5514Z" fill="#F6851B" stroke="#F6851B" stroke-linecap="round" stroke-linejoin="round"/>
<path id="Vector_29" d="M71.6799 65.8031L73.3364 36.8399L80.9662 16.2094H47.0839L54.6133 36.8399L56.3701 65.8031L56.9725 74.9388L57.0227 97.4266H70.927L71.0274 74.9388L71.6799 65.8031Z" fill="#F6851B" stroke="#F6851B" stroke-linecap="round" stroke-linejoin="round"/>
</g>
</svg>
