<svg width="103" height="85" viewBox="0 0 103 85" fill="none" xmlns="http://www.w3.org/2000/svg">
<path id="Vector" d="M96.584 41.9142H85.142C85.142 18.7651 66.173 0 42.7724 0C19.6612 0 0.871574 18.3057 0.411774 41.0583C-0.0640255 64.577 22.241 85 46.0186 85H49.0094C69.9723 85 98.069 68.7667 102.459 48.9874C103.27 45.3413 100.358 41.9142 96.584 41.9142ZM25.7689 42.9454C25.7689 46.0411 23.2095 48.5729 20.0802 48.5729C16.9509 48.5729 14.3916 46.0399 14.3916 42.9454V33.8414C14.3916 30.7457 16.9509 28.2139 20.0802 28.2139C23.2095 28.2139 25.7689 30.7457 25.7689 33.8414V42.9454ZM45.5224 42.9454C45.5224 46.0411 42.9631 48.5729 39.8338 48.5729C36.7045 48.5729 34.1451 46.0399 34.1451 42.9454V33.8414C34.1451 30.7457 36.7056 28.2139 39.8338 28.2139C42.9631 28.2139 45.5224 30.7457 45.5224 33.8414V42.9454Z" fill="url(#paint0_linear_98_255)"/>
<defs>
<linearGradient id="paint0_linear_98_255" x1="51.4998" y1="0" x2="51.4998" y2="85" gradientUnits="userSpaceOnUse">
<stop stop-color="white"/>
<stop offset="1" stop-color="white" stop-opacity="0.82"/>
</linearGradient>
</defs>
</svg>
